<svg width="486" height="187" viewBox="0 0 486 187" fill="none" xmlns="http://www.w3.org/2000/svg">
<rect y="0.873474" width="170.924" height="170.924" rx="85.4619" fill="#AA4428"/>
<path d="M66.3813 119.469C59.4892 119.469 52.7518 117.419 47.0211 113.577C41.2905 109.735 36.824 104.275 34.1865 97.8866C31.549 91.4982 30.8589 84.4685 32.2035 77.6866C33.5481 70.9047 36.867 64.6752 41.7405 59.7857C46.614 54.8962 52.8232 51.5664 59.5829 50.2174C66.3427 48.8684 73.3493 49.5608 79.7169 52.207C86.0844 54.8531 91.5268 59.3343 95.3559 65.0837C99.185 70.8331 101.229 77.5926 101.229 84.5073L66.3813 84.5073L66.3813 119.469Z" fill="white"/>
<path d="M139.39 84.5073C139.39 79.9161 138.488 75.3698 136.737 71.1281C134.986 66.8863 132.419 63.0322 129.183 59.7857C125.947 56.5392 122.106 53.9639 117.878 52.2069C113.65 50.45 109.118 49.5456 104.542 49.5456L104.542 84.5073H139.39Z" fill="white"/>
<path d="M139.39 87.9349C139.39 92.5261 138.488 97.0724 136.737 101.314C134.986 105.556 132.419 109.41 129.183 112.657C125.947 115.903 122.106 118.478 117.878 120.235C113.65 121.992 109.118 122.897 104.542 122.897C99.966 122.897 95.4346 121.992 91.2067 120.235C86.9788 118.478 83.1373 115.903 79.9014 112.657C76.6655 109.41 74.0987 105.556 72.3474 101.314C70.5962 97.0724 69.6948 92.5261 69.6948 87.9349L104.542 87.9349H139.39Z" fill="white"/>
<path d="M253.958 129.596L217.173 85.3333L252.993 44.8094H273.496L233.575 88.8308L233.696 81.2326L274.823 129.596H253.958ZM202.7 129.596V44.8094H219.102V129.596H202.7ZM306.488 130.802C300.378 130.802 294.95 129.516 290.207 126.943C285.463 124.289 281.684 120.671 278.869 116.088C276.136 111.505 274.769 106.279 274.769 100.409C274.769 94.62 276.096 89.4741 278.749 84.9714C281.483 80.3884 285.181 76.7702 289.845 74.1168C294.508 71.3831 299.694 70.0162 305.403 70.0162C311.031 70.0162 315.976 71.3027 320.238 73.8756C324.579 76.3681 327.956 79.8255 330.369 84.2478C332.861 88.5896 334.107 93.5345 334.107 99.0824C334.107 100.128 334.027 101.213 333.866 102.339C333.786 103.384 333.585 104.59 333.263 105.957L284.297 106.078V94.2582L325.906 94.1376L319.514 99.0824C319.353 95.625 318.71 92.7305 317.584 90.3987C316.539 88.067 314.971 86.2981 312.881 85.092C310.87 83.8056 308.378 83.1623 305.403 83.1623C302.267 83.1623 299.533 83.886 297.202 85.3333C294.87 86.7001 293.061 88.67 291.774 91.243C290.568 93.7355 289.965 96.7105 289.965 100.168C289.965 103.706 290.609 106.801 291.895 109.455C293.262 112.028 295.192 114.038 297.684 115.485C300.177 116.852 303.071 117.535 306.368 117.535C309.343 117.535 312.036 117.053 314.448 116.088C316.861 115.043 318.951 113.515 320.72 111.505L330.007 120.792C327.193 124.088 323.735 126.581 319.635 128.269C315.614 129.958 311.232 130.802 306.488 130.802ZM339.778 120.55L370.653 80.3884H389.709L358.834 120.55H339.778ZM339.778 129.596V120.55L352.321 115.847H388.985V129.596H339.778ZM341.949 85.092V71.3429H389.709V80.3884L377.045 85.092H341.949ZM423.362 130.802C418.055 130.802 413.271 129.475 409.01 126.822C404.748 124.169 401.412 120.55 399 115.967C396.587 111.384 395.381 106.238 395.381 100.53C395.381 94.7406 396.587 89.5545 399 84.9714C401.412 80.3884 404.748 76.7702 409.01 74.1168C413.271 71.4635 418.055 70.1368 423.362 70.1368C427.543 70.1368 431.282 70.981 434.579 72.6695C437.875 74.358 440.488 76.73 442.418 79.7853C444.428 82.7603 445.514 86.1373 445.674 89.9163V110.902C445.514 114.761 444.428 118.179 442.418 121.153C440.488 124.128 437.875 126.5 434.579 128.269C431.282 129.958 427.543 130.802 423.362 130.802ZM426.257 116.209C430.679 116.209 434.257 114.761 436.991 111.867C439.724 108.892 441.091 105.073 441.091 100.409C441.091 97.3537 440.448 94.6602 439.162 92.3284C437.956 89.9163 436.227 88.067 433.975 86.7805C431.805 85.4137 429.232 84.7302 426.257 84.7302C423.362 84.7302 420.789 85.4137 418.538 86.7805C416.367 88.067 414.638 89.9163 413.352 92.3284C412.146 94.6602 411.543 97.3537 411.543 100.409C411.543 103.545 412.146 106.319 413.352 108.731C414.638 111.063 416.367 112.912 418.538 114.279C420.789 115.565 423.362 116.209 426.257 116.209ZM440.247 129.596V113.917L442.78 99.6855L440.247 85.6951V71.3429H455.926V129.596H440.247Z" fill="#AA4428"/>
</svg>
