<svg width="486" height="186" viewBox="0 0 486 186" fill="none" xmlns="http://www.w3.org/2000/svg">
<rect width="170.924" height="170.924" rx="85.4619" fill="#DE3826"/>
<path d="M66.3813 118.596C59.4892 118.596 52.7518 116.545 47.0211 112.703C41.2905 108.862 36.824 103.402 34.1865 97.0131C31.549 90.6247 30.8589 83.5951 32.2035 76.8132C33.5481 70.0313 36.867 63.8017 41.7405 58.9122C46.614 54.0227 52.8232 50.693 59.5829 49.344C66.3427 47.995 73.3493 48.6873 79.7169 51.3335C86.0844 53.9796 91.5268 58.4608 95.3559 64.2102C99.185 69.9596 101.229 76.7191 101.229 83.6339L66.3813 83.6339L66.3813 118.596Z" fill="white"/>
<path d="M139.39 83.6338C139.39 79.0426 138.488 74.4963 136.737 70.2546C134.986 66.0128 132.419 62.1587 129.183 58.9122C125.947 55.6657 122.106 53.0904 117.878 51.3334C113.65 49.5765 109.118 48.6721 104.542 48.6721L104.542 83.6338H139.39Z" fill="white"/>
<path d="M139.39 87.0614C139.39 91.6527 138.488 96.1989 136.737 100.441C134.986 104.682 132.419 108.537 129.183 111.783C125.947 115.03 122.106 117.605 117.878 119.362C113.65 121.119 109.118 122.023 104.542 122.023C99.966 122.023 95.4346 121.119 91.2067 119.362C86.9788 117.605 83.1373 115.03 79.9014 111.783C76.6655 108.537 74.0987 104.682 72.3474 100.441C70.5962 96.1989 69.6948 91.6526 69.6948 87.0614L104.542 87.0614H139.39Z" fill="white"/>
<path d="M253.958 128.722L217.173 84.4598L252.993 43.9359H273.496L233.575 87.9574L233.696 80.3591L274.823 128.722H253.958ZM202.7 128.722V43.9359H219.102V128.722H202.7ZM306.488 129.929C300.378 129.929 294.95 128.642 290.207 126.069C285.463 123.416 281.684 119.798 278.869 115.214C276.136 110.631 274.769 105.405 274.769 99.5356C274.769 93.7465 276.096 88.6006 278.749 84.0979C281.483 79.5149 285.181 75.8967 289.845 73.2433C294.508 70.5096 299.694 69.1427 305.403 69.1427C311.031 69.1427 315.976 70.4292 320.238 73.0021C324.579 75.4947 327.956 78.9521 330.369 83.3743C332.861 87.7161 334.107 92.661 334.107 98.2089C334.107 99.2542 334.027 100.34 333.866 101.465C333.786 102.511 333.585 103.717 333.263 105.084L284.297 105.204V93.3847L325.906 93.2641L319.514 98.2089C319.353 94.7515 318.71 91.857 317.584 89.5252C316.539 87.1935 314.971 85.4246 312.881 84.2186C310.87 82.9321 308.378 82.2888 305.403 82.2888C302.267 82.2888 299.533 83.0125 297.202 84.4598C294.87 85.8266 293.061 87.7966 291.774 90.3695C290.568 92.862 289.965 95.837 289.965 99.2944C289.965 102.832 290.609 105.928 291.895 108.581C293.262 111.154 295.192 113.164 297.684 114.611C300.177 115.978 303.071 116.662 306.368 116.662C309.343 116.662 312.036 116.179 314.448 115.214C316.861 114.169 318.951 112.642 320.72 110.631L330.007 119.918C327.193 123.215 323.735 125.707 319.635 127.396C315.614 129.084 311.232 129.929 306.488 129.929ZM339.778 119.677L370.653 79.5149H389.709L358.834 119.677H339.778ZM339.778 128.722V119.677L352.321 114.973H388.985V128.722H339.778ZM341.949 84.2186V70.4694H389.709V79.5149L377.045 84.2186H341.949ZM423.362 129.929C418.055 129.929 413.271 128.602 409.01 125.949C404.748 123.295 401.412 119.677 399 115.094C396.587 110.511 395.381 105.365 395.381 99.6562C395.381 93.8671 396.587 88.681 399 84.0979C401.412 79.5149 404.748 75.8967 409.01 73.2433C413.271 70.59 418.055 69.2633 423.362 69.2633C427.543 69.2633 431.282 70.1076 434.579 71.796C437.875 73.4845 440.488 75.8565 442.418 78.9119C444.428 81.8868 445.514 85.2638 445.674 89.0428V110.028C445.514 113.888 444.428 117.305 442.418 120.28C440.488 123.255 437.875 125.627 434.579 127.396C431.282 129.084 427.543 129.929 423.362 129.929ZM426.257 115.335C430.679 115.335 434.257 113.888 436.991 110.993C439.724 108.018 441.091 104.199 441.091 99.5356C441.091 96.4802 440.448 93.7867 439.162 91.455C437.956 89.0428 436.227 87.1935 433.975 85.907C431.805 84.5402 429.232 83.8567 426.257 83.8567C423.362 83.8567 420.789 84.5402 418.538 85.907C416.367 87.1935 414.638 89.0428 413.352 91.455C412.146 93.7867 411.543 96.4802 411.543 99.5356C411.543 102.671 412.146 105.445 413.352 107.857C414.638 110.189 416.367 112.039 418.538 113.405C420.789 114.692 423.362 115.335 426.257 115.335ZM440.247 128.722V113.044L442.78 98.812L440.247 84.8216V70.4694H455.926V128.722H440.247Z" fill="#DE3826"/>
</svg>
