<svg width="184" height="184" viewBox="0 0 184 184" fill="none" xmlns="http://www.w3.org/2000/svg">
<rect width="183.763" height="183.763" rx="91.8814" fill="#AA4428"/>
<path d="M71.3674 127.504C63.9575 127.504 56.7141 125.299 50.553 121.169C44.3919 117.039 39.5899 111.168 36.7543 104.3C33.9186 97.4319 33.1767 89.8743 34.6223 82.583C36.0679 75.2916 39.6361 68.5941 44.8757 63.3374C50.1152 58.0806 56.7909 54.5007 64.0583 53.0504C71.3258 51.6001 78.8588 52.3444 85.7046 55.1894C92.5505 58.0343 98.4017 62.852 102.518 69.0333C106.635 75.2146 108.832 82.4818 108.832 89.916L71.3674 89.916L71.3674 127.504Z" fill="white"/>
<path d="M149.86 89.916C149.86 84.9799 148.891 80.0921 147.008 75.5317C145.125 70.9714 142.365 66.8277 138.887 63.3374C135.408 59.847 131.277 57.0783 126.732 55.1894C122.187 53.3004 117.315 52.3282 112.395 52.3282L112.395 89.916H149.86Z" fill="white"/>
<path d="M149.86 93.6011C149.86 98.5372 148.891 103.425 147.008 107.985C145.125 112.546 142.365 116.689 138.887 120.18C135.408 123.67 131.277 126.439 126.732 128.328C122.187 130.217 117.315 131.189 112.395 131.189C107.475 131.189 102.603 130.217 98.0576 128.328C93.5121 126.439 89.382 123.67 85.9031 120.18C82.4241 116.689 79.6645 112.546 77.7817 107.985C75.8989 103.425 74.9298 98.5372 74.9298 93.601L112.395 93.6011H149.86Z" fill="white"/>
<rect width="183.763" height="183.763" rx="91.8814" fill="#AA4428"/>
<path d="M71.3674 127.504C63.9575 127.504 56.7141 125.299 50.553 121.169C44.3919 117.039 39.5899 111.168 36.7543 104.3C33.9186 97.4319 33.1767 89.8743 34.6223 82.583C36.0679 75.2916 39.6361 68.5941 44.8757 63.3374C50.1152 58.0806 56.7909 54.5007 64.0583 53.0504C71.3258 51.6001 78.8588 52.3444 85.7046 55.1894C92.5505 58.0343 98.4017 62.852 102.518 69.0333C106.635 75.2146 108.832 82.4818 108.832 89.916L71.3674 89.916L71.3674 127.504Z" fill="white"/>
<path d="M149.86 89.916C149.86 84.9799 148.891 80.0921 147.008 75.5317C145.125 70.9714 142.365 66.8277 138.887 63.3374C135.408 59.847 131.277 57.0783 126.732 55.1894C122.187 53.3004 117.315 52.3282 112.395 52.3282L112.395 89.916H149.86Z" fill="white"/>
<path d="M149.86 93.6011C149.86 98.5372 148.891 103.425 147.008 107.985C145.125 112.546 142.365 116.689 138.887 120.18C135.408 123.67 131.277 126.439 126.732 128.328C122.187 130.217 117.315 131.189 112.395 131.189C107.475 131.189 102.603 130.217 98.0576 128.328C93.5121 126.439 89.382 123.67 85.9031 120.18C82.4241 116.689 79.6645 112.546 77.7817 107.985C75.8989 103.425 74.9298 98.5372 74.9298 93.601L112.395 93.6011H149.86Z" fill="white"/>
</svg>
